<svg id="Layer_1" data-name="Layer 1" xmlns="http://www.w3.org/2000/svg" viewBox="0 0 82.98 83.41"><defs><style>.cls-1{opacity:0.8;}</style></defs><g class="cls-1"><path d="M41.48,83.41c-7.14-.33-14.33-.22-21.4-1.11C8.27,80.83.65,72.38.31,60.37q-.54-18.65,0-37.3C.69,9.49,9.94.49,23.58.19Q41.42-.2,59.26.19c14.11.29,23.36,9.93,23.6,24.43.18,11.19.2,22.4,0,33.59C82.68,66.56,80.17,74,72.65,78.79a25,25,0,0,1-13,4c-6.06.17-12.13,0-18.19,0ZM7,42.27c.24,6.19.14,12.51.82,18.75C8.78,69.69,13.07,74.5,21.7,75c13,.69,26.1.68,39.12.16,7.92-.32,12.57-5,13.94-11.82a32.42,32.42,0,0,0,.63-5.55c.18-9,.41-18,.34-27a59.71,59.71,0,0,0-1.18-11.55,13.54,13.54,0,0,0-12.27-11C49.1,6.6,35.88,6.85,22.69,7.72c-9.32.62-14.41,6.1-14.92,15.34C7.42,29.42,7.26,35.79,7,42.27Z" transform="translate(-0.02 0)"/><path d="M41.23,62.8a21.31,21.31,0,1,1,.33-42.62A21,21,0,0,1,62.63,41.64,21.08,21.08,0,0,1,41.23,62.8ZM27.28,41.32A13.71,13.71,0,0,0,41,55.31a13.93,13.93,0,1,0-13.76-14Z" transform="translate(-0.02 0)"/><path d="M63.54,24.08a5.2,5.2,0,0,1-4.92-4.93,5.23,5.23,0,0,1,5.09-5,5.16,5.16,0,0,1,4.88,5.2A5,5,0,0,1,63.54,24.08Z" transform="translate(-0.02 0)"/></g></svg>