<?xml version="1.0" encoding="utf-8"?>
<!-- Generator: Adobe Illustrator 24.1.1, SVG Export Plug-In . SVG Version: 6.00 Build 0)  -->
<svg version="1.1" id="Layer_1" xmlns="http://www.w3.org/2000/svg" xmlns:xlink="http://www.w3.org/1999/xlink" x="0px" y="0px"
	 viewBox="0 0 84 84" style="enable-background:new 0 0 84 84;" xml:space="preserve">
<style type="text/css">
	.st0{opacity:0.8;}
</style>
<path class="st0" d="M44.9,84h-5.9c-1.4-0.2-2.8-0.4-4.2-0.6c-16.7-2.9-30-15.5-33.8-32.1c-0.5-2.1-0.7-4.3-1.1-6.4v-6.5
	c0.2-1.2,0.4-2.5,0.6-3.7C3.5,18.1,16.2,4.8,32.7,1.1c2.1-0.5,4.3-0.7,6.4-1.1h5.9c0.2,0.1,0.5,0.1,0.7,0.2
	C51.3,0.6,56.8,2.2,61.8,5c11.6,6.4,18.8,16.2,21.4,29.2c0.4,1.9,0.5,3.8,0.8,5.7v4.8c-0.2,1.4-0.4,2.9-0.6,4.3
	c-2.9,17.2-16.2,30.8-33.3,34.1C48.4,83.5,46.7,83.7,44.9,84z M41.9,77.4c19.6,0,35.5-15.8,35.5-35.4S61.6,6.6,42,6.6
	C22.9,6.5,7.2,21.7,6.6,40.9C5.9,60.5,21.3,76.8,40.9,77.4C41.2,77.4,41.6,77.4,41.9,77.4L41.9,77.4z"/>
<path class="st0" d="M42,63h-7.8V31.6H42v4.9l0.3,0.3c0.2-0.4,0.5-0.7,0.8-1c3.1-3.3,7.6-4.7,12-3.9c4.1,0.7,7.2,4,7.7,8.1
	c0.1,0.9,0.2,1.7,0.2,2.6c0,6.4,0,12.9,0,19.3V63h-7.9v-1.2c0-5.4,0-10.8,0-16.3c-0.3-3.2-2.7-5.7-5.8-6.2c-3.4-0.3-6.7,2-7.3,5
	c0,0.3,0,0.6,0,0.9L42,63L42,63z"/>
<path class="st0" d="M21.1,31.5h7.8V63h-7.8V31.5z"/>
<path class="st0" d="M24.9,28.9c-2.2,0-3.9-1.8-3.9-3.9c0,0,0,0,0-0.1c0.1-2.2,2-3.8,4.1-3.7c2,0.1,3.6,1.7,3.7,3.8
	C28.9,27.1,27.1,28.8,24.9,28.9C25,28.9,24.9,28.9,24.9,28.9z"/>
</svg>
