<?xml version="1.0" encoding="utf-8"?>
<!-- Generator: Adobe Illustrator 24.1.1, SVG Export Plug-In . SVG Version: 6.00 Build 0)  -->
<svg version="1.1" id="Layer_1" xmlns="http://www.w3.org/2000/svg" xmlns:xlink="http://www.w3.org/1999/xlink" x="0px" y="0px"
	 viewBox="0 0 83.5 83.5" style="enable-background:new 0 0 83.5 83.5;" xml:space="preserve">
<style type="text/css">
	.st0{opacity:0.8;}
</style>
<path class="st0" d="M0,44.7v-6.5c0.2-1.2,0.4-2.5,0.6-3.7C3.5,18,16.1,4.8,32.5,1c2.1-0.5,4.2-0.7,6.3-1h5.8
	c0.2,0.1,0.5,0.1,0.7,0.2C51,0.6,56.5,2.3,61.4,5c11.6,6.4,18.7,16.1,21.3,29c0.4,1.9,0.6,3.8,0.8,5.7v4.8c-0.2,1.4-0.4,2.9-0.6,4.3
	c-2.9,17.1-16.1,30.5-33.1,33.9c-1.7,0.3-3.4,0.5-5.1,0.8h-5.8c-1.4-0.2-2.8-0.4-4.2-0.6C18,80,4.8,67.4,1.1,51
	C0.6,48.9,0.4,46.8,0,44.7z M41.7,77C61,77.1,77,61.2,77,42C77.1,22.5,61.4,6.7,42,6.5C22.5,6.4,6.6,22.1,6.5,41.5
	C6.4,61,22,76.9,41.5,77C41.6,77,41.6,77,41.7,77z"/>
<path class="st0" d="M41.1,34.8c0.1-1.8,0.3-3.6,0.7-5.3c1.2-4.4,5.8-6.9,10.2-5.7c0,0,0,0,0,0c1.2,0.4,2.4,1.1,3.4,1.9
	c0.5,0.5,1.2,0.7,1.9,0.4l4.3-1.6c-0.4,0.9-0.9,1.7-1.4,2.5c-0.5,0.8-1.2,1.4-2,2.4l4.2-1.3l0.2,0.2c-1,1.2-2,2.5-3.2,3.6
	c-0.6,0.5-0.9,1.2-0.9,2c0,8.1-2.8,15-8.9,20.4c-7.6,6.7-18.7,7.7-27.4,2.5c-0.3-0.2-0.6-0.4-1.1-0.7c4.3,0.6,8.6-0.8,11.8-3.8
	c-1.8-0.1-3.5-0.8-4.9-1.9c-1.4-1-2.4-2.5-2.8-4.3l3.2-0.3l0.1-0.2c-4.2-1.4-6.3-4.3-6.4-8.8c0.5,0.2,1.1,0.5,1.7,0.6
	c0.6,0.1,1.2,0.2,1.8,0.2c-3.6-3.6-4.4-7.6-2.4-12.3C27.5,30.9,34,34.4,41.1,34.8z"/>
</svg>
